<svg width="32" height="32" viewBox="0 0 32 32" fill="none" xmlns="http://www.w3.org/2000/svg">
<mask id="mask0_102_8" style="mask-type:luminance" maskUnits="userSpaceOnUse" x="0" y="0" width="32" height="32">
<path d="M0 0H32V32H0V0Z" fill="white"/>
</mask>
<g mask="url(#mask0_102_8)">
<path d="M31.1579 27.7895C31.1579 28.6828 30.803 29.5396 30.1713 30.1713C29.5396 30.803 28.6828 31.1579 27.7895 31.1579H4.21052C3.31716 31.1579 2.46039 30.803 1.82869 30.1713C1.19699 29.5396 0.842102 28.6828 0.842102 27.7895V4.21053C0.842102 3.31717 1.19699 2.4604 1.82869 1.8287C2.46039 1.197 3.31716 0.84211 4.21052 0.84211H27.7895C28.6828 0.84211 29.5396 1.197 30.1713 1.8287C30.803 2.4604 31.1579 3.31717 31.1579 4.21053V27.7895Z" fill="#3B88C3"/>
<path d="M8.7707 15.1628H10.8254C11.9226 15.1628 12.6819 14.5121 12.6819 13.4078C12.6819 12.2837 11.9226 11.6718 10.8254 11.6718H8.7707V15.1628ZM5.77777 10.4886C5.77777 9.54206 6.31638 8.94983 7.31381 8.94983H10.8254C13.8981 8.94983 15.7939 10.3111 15.7939 13.4078C15.7939 15.5769 14.1375 16.8193 12.1021 17.1354L15.4947 20.7251C15.7733 21.0209 15.893 21.3166 15.893 21.5927C15.893 22.3618 15.2746 23.1111 14.3975 23.1111C14.0378 23.1111 13.559 22.9731 13.2398 22.5984L8.8106 17.2932H8.7707V21.573C8.7707 22.5596 8.13235 23.1111 7.27392 23.1111C6.41613 23.1111 5.77777 22.5596 5.77777 21.573V10.4886Z" fill="white"/>
<path d="M19.1589 20.4247H21.4635C22.5179 20.4247 23.2995 19.8082 23.2995 18.6946C23.2995 17.7593 22.596 17.123 21.2292 17.123H19.1589V20.4247ZM19.1589 14.4974H20.6825C21.6392 14.4974 22.264 13.9207 22.264 12.9264C22.264 11.9918 21.5416 11.5139 20.6825 11.5139H19.1589V14.4974ZM16.2302 10.3804C16.2302 9.42583 16.8745 8.88892 17.7726 8.88892H21.5221C23.5527 8.88892 25.194 10.2809 25.194 12.3895C25.194 13.7815 24.6266 14.7168 23.377 15.3127V15.3531C25.0372 15.5917 26.3454 17.0036 26.3454 18.7337C26.3454 21.5383 24.51 23.0502 21.8143 23.0502H17.7922C16.8934 23.0502 16.2302 22.4729 16.2302 21.5383V10.3804Z" fill="white"/>
</g>
</svg>
